<svg width="124" height="44" viewBox="0 0 124 44" fill="none" xmlns="http://www.w3.org/2000/svg">
<path d="M43.376 29.5H41.648C41.432 29.5 41.36 29.374 41.432 29.122L44.276 18.304C44.36 18.052 44.54 17.926 44.816 17.926H47.21C47.51 17.926 47.69 18.052 47.75 18.304L50.594 29.122C50.666 29.374 50.594 29.5 50.378 29.5H48.65C48.518 29.5 48.428 29.476 48.38 29.428C48.332 29.368 48.296 29.266 48.272 29.122L47.768 27.142H44.258L43.754 29.122C43.73 29.266 43.688 29.368 43.628 29.428C43.58 29.476 43.496 29.5 43.376 29.5ZM45.986 20.104L44.69 25.306H47.354L46.058 20.104H45.986ZM53.9175 29.5H52.3875C52.1355 29.5 52.0095 29.374 52.0095 29.122V20.698C52.0095 20.446 52.1355 20.32 52.3875 20.32H53.9175C54.1695 20.32 54.2955 20.446 54.2955 20.698V21.31H54.3675C54.4995 20.986 54.7335 20.74 55.0695 20.572C55.4055 20.404 55.7595 20.32 56.1315 20.32H56.7795C57.0195 20.32 57.1395 20.446 57.1395 20.698V21.94C57.1395 22.084 57.1095 22.186 57.0495 22.246C57.0015 22.294 56.9115 22.312 56.7795 22.3H55.5375C54.7095 22.3 54.2955 22.768 54.2955 23.704V29.122C54.2955 29.374 54.1695 29.5 53.9175 29.5ZM65.0529 29.5H61.0749C60.1269 29.5 59.3949 29.248 58.8789 28.744C58.3629 28.24 58.1049 27.514 58.1049 26.566V23.254C58.1049 22.306 58.3629 21.58 58.8789 21.076C59.3949 20.572 60.1269 20.32 61.0749 20.32H62.4969C63.4449 20.32 64.1769 20.572 64.6929 21.076C65.2089 21.58 65.4669 22.306 65.4669 23.254V25.54C65.4669 25.792 65.3409 25.918 65.0889 25.918H60.5709C60.4269 25.918 60.3549 25.984 60.3549 26.116V26.512C60.3549 26.884 60.4329 27.154 60.5889 27.322C60.7569 27.478 61.0329 27.556 61.4169 27.556H65.0529C65.3049 27.556 65.4309 27.688 65.4309 27.952V29.14C65.4309 29.272 65.4009 29.368 65.3409 29.428C65.2929 29.476 65.1969 29.5 65.0529 29.5ZM60.5709 24.388H63.0189C63.1509 24.388 63.2169 24.322 63.2169 24.19V23.326C63.2169 22.942 63.1389 22.672 62.9829 22.516C62.8269 22.36 62.5569 22.282 62.1729 22.282H61.4169C61.0329 22.282 60.7629 22.36 60.6069 22.516C60.4509 22.672 60.3729 22.942 60.3729 23.326V24.19C60.3729 24.322 60.4389 24.388 60.5709 24.388ZM69.0875 29.5H67.5575C67.3055 29.5 67.1795 29.374 67.1795 29.122V20.698C67.1795 20.446 67.3055 20.32 67.5575 20.32H69.0875C69.3395 20.32 69.4655 20.446 69.4655 20.698V21.292H69.5375C69.8015 20.644 70.3895 20.32 71.3015 20.32H71.8775C73.7615 20.32 74.7035 21.298 74.7035 23.254V29.122C74.7035 29.374 74.5715 29.5 74.3075 29.5H72.7955C72.5435 29.5 72.4175 29.374 72.4175 29.122V23.362C72.4175 22.978 72.3335 22.708 72.1655 22.552C72.0095 22.384 71.7395 22.3 71.3555 22.3H70.7075C69.8795 22.3 69.4655 22.756 69.4655 23.668V29.122C69.4655 29.374 69.3395 29.5 69.0875 29.5ZM79.8233 29.5H79.3913C78.4433 29.5 77.7113 29.248 77.1953 28.744C76.6793 28.24 76.4213 27.514 76.4213 26.566V23.254C76.4213 22.306 76.6793 21.58 77.1953 21.076C77.7113 20.572 78.4433 20.32 79.3913 20.32H83.5493C83.8133 20.32 83.9453 20.446 83.9453 20.698V29.122C83.9453 29.374 83.8133 29.5 83.5493 29.5H82.0373C81.7853 29.5 81.6593 29.374 81.6593 29.122V28.528H81.5873C81.4553 28.852 81.2213 29.098 80.8853 29.266C80.5493 29.422 80.1953 29.5 79.8233 29.5ZM81.6593 26.152V22.498C81.6593 22.366 81.5873 22.3 81.4433 22.3H79.7513C79.3673 22.3 79.0973 22.384 78.9413 22.552C78.7853 22.708 78.7073 22.978 78.7073 23.362V26.458C78.7073 26.842 78.7853 27.118 78.9413 27.286C79.0973 27.442 79.3673 27.52 79.7513 27.52H80.4173C81.2453 27.52 81.6593 27.064 81.6593 26.152ZM96.3528 29.5H90.4308C90.1788 29.5 90.0528 29.374 90.0528 29.122V18.304C90.0528 18.052 90.1788 17.926 90.4308 17.926H91.9608C92.2128 17.926 92.3388 18.052 92.3388 18.304V27.304C92.3388 27.436 92.4108 27.502 92.5548 27.502H96.3528C96.5928 27.502 96.7128 27.634 96.7128 27.898V29.122C96.7128 29.374 96.5928 29.5 96.3528 29.5ZM101.181 29.5H100.749C99.8008 29.5 99.0688 29.248 98.5528 28.744C98.0368 28.24 97.7788 27.514 97.7788 26.566V23.254C97.7788 22.306 98.0368 21.58 98.5528 21.076C99.0688 20.572 99.8008 20.32 100.749 20.32H104.907C105.171 20.32 105.303 20.446 105.303 20.698V29.122C105.303 29.374 105.171 29.5 104.907 29.5H103.395C103.143 29.5 103.017 29.374 103.017 29.122V28.528H102.945C102.813 28.852 102.579 29.098 102.243 29.266C101.907 29.422 101.553 29.5 101.181 29.5ZM103.017 26.152V22.498C103.017 22.366 102.945 22.3 102.801 22.3H101.109C100.725 22.3 100.455 22.384 100.299 22.552C100.143 22.708 100.065 22.978 100.065 23.362V26.458C100.065 26.842 100.143 27.118 100.299 27.286C100.455 27.442 100.725 27.52 101.109 27.52H101.775C102.603 27.52 103.017 27.064 103.017 26.152ZM110.641 29.5H109.903C108.979 29.5 108.277 29.248 107.797 28.744C107.329 28.24 107.095 27.514 107.095 26.566V23.254C107.095 22.306 107.329 21.58 107.797 21.076C108.277 20.572 108.979 20.32 109.903 20.32H110.641C111.013 20.32 111.367 20.404 111.703 20.572C112.039 20.728 112.273 20.968 112.405 21.292H112.477V17.224C112.477 16.972 112.603 16.846 112.855 16.846H114.385C114.637 16.846 114.763 16.972 114.763 17.224V29.122C114.763 29.374 114.637 29.5 114.385 29.5H112.855C112.603 29.5 112.477 29.374 112.477 29.122V28.528H112.405C112.273 28.852 112.039 29.098 111.703 29.266C111.367 29.422 111.013 29.5 110.641 29.5ZM112.477 26.152V23.668C112.477 22.756 112.063 22.3 111.235 22.3H110.425C110.041 22.3 109.771 22.384 109.615 22.552C109.459 22.708 109.381 22.978 109.381 23.362V26.458C109.381 26.842 109.459 27.118 109.615 27.286C109.771 27.442 110.041 27.52 110.425 27.52H111.235C112.063 27.52 112.477 27.064 112.477 26.152ZM120.224 29.5H116.804C116.564 29.5 116.444 29.374 116.444 29.122V27.97C116.444 27.838 116.468 27.748 116.516 27.7C116.564 27.64 116.66 27.61 116.804 27.61H119.81C120.398 27.61 120.692 27.43 120.692 27.07V26.98C120.692 26.692 120.446 26.416 119.954 26.152L118.172 25.162C117.56 24.85 117.11 24.514 116.822 24.154C116.534 23.794 116.39 23.332 116.39 22.768C116.39 21.928 116.612 21.31 117.056 20.914C117.5 20.518 118.196 20.32 119.144 20.32H122.15C122.39 20.32 122.51 20.446 122.51 20.698V21.868C122.51 22 122.486 22.096 122.438 22.156C122.39 22.204 122.294 22.228 122.15 22.228H119.648C119.06 22.228 118.766 22.378 118.766 22.678V22.768C118.766 23.032 119.024 23.302 119.54 23.578L121.358 24.658C121.982 24.994 122.42 25.342 122.672 25.702C122.924 26.05 123.05 26.512 123.05 27.088C123.05 28.696 122.108 29.5 120.224 29.5Z" fill="white"/>
<path d="M22.5312 11.0455C23.0135 10.603 23.493 10.1565 23.9787 9.71886C24.6306 9.13149 25.2815 8.54221 25.9458 7.97299C26.1383 7.8081 26.1745 7.65058 26.1082 7.4013C25.5027 5.12396 24.9046 2.84415 24.3065 0.564334C24.2747 0.443128 24.2627 0.315372 24.2466 0.152455C24.2517 0.114249 24.2506 0.11776 24.2506 0.11776C24.3389 0.19527 24.4352 0.263644 24.5143 0.351617C26.6092 2.68189 28.704 5.01228 30.795 7.3469C31.9573 8.64452 33.113 9.94951 34.271 11.252C34.4011 11.3983 34.5265 11.5499 34.6953 11.7473C32.3193 16.1034 29.9467 20.4531 27.521 24.8161C27.1788 24.7814 27.2703 24.3969 27.0607 24.2397C26.6781 24.5922 26.2423 24.5888 25.8322 24.5007C25.7011 24.1341 25.5876 23.817 25.4742 23.4998C25.3749 23.6611 25.3232 23.8041 25.3384 23.9374C25.3901 24.3922 25.1714 24.6431 24.8509 24.8318C24.8508 24.8316 24.8504 24.8311 24.8457 24.8069C24.823 24.7376 24.8051 24.6925 24.7872 24.6475C24.9975 23.6512 25.203 22.6536 25.4192 21.6589C25.9533 19.2015 26.493 16.7456 27.0281 14.2884C27.0602 14.1409 27.0717 13.9877 27.1074 13.7327C26.2997 14.2042 25.5485 14.5626 24.8244 15.024C24.8399 14.9061 24.8671 14.7819 24.9363 14.7335C25.1729 14.5683 25.4334 14.4459 25.6674 14.2765C25.9199 14.0936 26.1527 13.8764 26.4219 13.6602C26.7149 13.5262 26.9801 13.4062 27.2769 13.2867C27.372 13.2884 27.4354 13.2895 27.4988 13.3302C27.4989 13.5015 27.499 13.6333 27.4728 13.7833C27.4068 13.8834 27.3474 13.9606 27.331 14.0481C27.2784 14.3291 27.2558 14.6177 27.1955 14.8963C27.0948 15.3607 26.9656 15.8174 26.8659 16.2821C26.83 16.4491 26.8146 16.6359 26.8419 16.803C26.9079 17.206 26.931 17.5754 26.7108 17.9511C26.5562 18.2152 26.6989 18.4376 26.9936 18.4749C27.1061 18.4891 27.2209 18.4808 27.3346 18.4832C28.3004 18.5037 29.2662 18.5201 30.2318 18.5483C30.4425 18.5544 30.5365 18.4172 30.6204 18.241C30.6863 18.1025 30.7396 17.9521 30.8249 17.8303C31.1742 17.332 31.5633 16.8655 31.8817 16.3441C32.2747 15.7005 32.612 15.014 32.9738 14.346C32.9742 14.3459 32.9744 14.345 32.9974 14.3255C33.1194 14.0951 33.2184 13.8842 33.3394 13.6539C33.4319 13.487 33.5025 13.3394 33.5941 13.1738C33.6588 13.0717 33.7023 12.9877 33.7652 12.879C33.9246 12.6017 34.1032 12.3673 34.1124 12.0212C34.1748 11.8847 34.2153 11.7687 34.241 11.6265C34.0937 11.4577 33.9612 11.3151 33.8128 11.1459C33.1027 10.342 32.4107 9.56196 31.7133 8.78817C31.1765 8.19263 30.6358 7.60149 30.0902 7.01626C29.9589 6.87546 29.8012 6.76587 29.6444 6.61153C29.5464 6.45558 29.4699 6.3185 29.3712 6.20619C28.0188 4.66805 26.6646 3.13178 25.3066 1.59989C25.1539 1.42762 24.975 1.2848 24.7741 1.09635C24.7549 1.48 25.5919 4.76186 26.1439 6.57886C26.1733 6.65193 26.1974 6.69847 26.2227 6.77898C26.2501 6.91957 26.2763 7.02618 26.3062 7.17102C26.3206 7.27196 26.3258 7.33669 26.343 7.39701C26.4434 7.74706 26.3574 7.99719 26.0823 8.21775C25.7026 8.52215 25.3548 8.87658 24.9912 9.20659C24.3748 9.76593 23.7568 10.3229 23.1163 10.8921C23.0515 10.96 23.0099 11.0167 22.9689 11.0743C22.9695 11.0751 22.9679 11.0736 22.9378 11.0813C22.7876 11.1199 22.6674 11.1507 22.5433 11.1476C22.5366 11.0909 22.5339 11.0682 22.5312 11.0455Z" fill="white"/>
<path d="M15.1031 24.2572C15.1725 24.2808 15.242 24.3044 15.3502 24.3664C15.4914 24.4251 15.594 24.4453 15.6965 24.4655C15.735 24.4705 15.7736 24.4755 15.8519 24.5122C15.9702 24.5499 16.0487 24.5558 16.1272 24.5618C16.1913 24.5699 16.2555 24.578 16.366 24.6191C16.5169 24.6502 16.6214 24.6484 16.7258 24.6466C17.0992 24.644 17.4726 24.6413 17.9021 24.6539C18.0046 24.6563 18.0509 24.6434 18.0972 24.6305C18.2192 24.6041 18.3412 24.5778 18.5209 24.5673C18.827 24.6612 19.0438 24.6154 19.2114 24.378C19.4006 24.2998 19.5898 24.2216 19.8464 24.1425C20.2247 24.0836 20.5364 24.0169 20.8201 24.2495C20.8179 24.2934 20.8157 24.3373 20.7854 24.4256C20.7489 24.5569 20.7405 24.6438 20.7322 24.7307C20.7247 24.8059 20.7171 24.8811 20.6746 25.0091C20.4882 25.2542 20.4534 25.4632 20.5674 25.6938C20.5408 25.8637 20.5141 26.0337 20.4498 26.2601C20.3856 26.5151 20.3591 26.7135 20.3326 26.912C20.3318 26.9702 20.3309 27.0284 20.3004 27.1238C20.2707 27.2256 20.2705 27.2901 20.2704 27.3546C20.2666 27.3928 20.2629 27.431 20.2409 27.5063C20.2115 27.5695 20.2121 27.5953 20.2244 27.621C20.2217 27.664 20.2189 27.707 20.1833 27.7987C19.9962 28.0709 19.9284 28.3092 20.051 28.5803C20.049 28.6232 20.0471 28.6661 20.0049 28.7407C19.8836 28.7739 19.8025 28.7755 19.6905 28.7627C19.3104 28.6933 18.9602 28.5848 18.6122 28.593C17.4404 28.6206 16.2591 28.4408 15.0524 28.7701C15.0524 28.9493 15.0465 29.1332 15.054 29.3164C15.0625 29.523 15.0831 29.729 15.0734 29.9206C14.9361 29.7207 14.824 29.5355 14.7119 29.3503C14.7014 29.3096 14.6909 29.2689 14.7025 29.1828C14.8684 28.9775 14.7638 28.92 14.638 28.8714C14.638 28.8714 14.6274 28.8528 14.6398 28.8118C14.622 28.6742 14.5918 28.5775 14.5616 28.4808C14.5442 28.4109 14.5269 28.341 14.5296 28.2143C14.6276 27.8819 14.4908 27.2601 14.2822 26.9412C14.2732 26.9 14.2641 26.8588 14.2674 26.7557C14.2743 26.3092 14.2438 25.9311 14.0531 25.5948C14.0346 25.5248 14.0161 25.4548 14.0094 25.3186C13.9467 24.8858 13.8723 24.5191 13.7978 24.1524C13.7797 24.082 13.7617 24.0116 13.771 23.8871C13.8504 23.7954 13.9025 23.7578 13.9546 23.7202C13.9546 23.7202 13.9741 23.7246 14.0005 23.7613C14.2054 23.8731 14.384 23.9483 14.5627 24.0235C14.59 24.0225 14.6156 24.0294 14.6709 24.0852C14.8126 24.1615 14.9229 24.197 15.0332 24.2325C15.0332 24.2325 15.0264 24.2354 15.0329 24.244C15.0394 24.2525 15.0701 24.269 15.0701 24.269L15.1031 24.2572Z" fill="white"/>
<path d="M5.43657 21.7528C5.43657 21.7528 5.42082 21.7382 5.42221 21.6876C5.41889 21.5894 5.42677 21.5339 5.40761 21.4954C5.04802 20.7731 4.69059 20.0492 4.31563 19.3371C4.27329 19.2567 4.12829 19.2447 4.03089 19.2009C4.03089 19.2009 4.02741 19.1961 4.03723 19.1553C4.00023 18.9552 3.96338 18.791 3.90351 18.6381C3.85313 18.5095 3.77533 18.3946 3.7108 18.2729C3.56738 18.0023 3.41996 17.7342 3.2831 17.4595C3.16779 17.228 3.06508 16.9886 2.98535 16.7612C3.08437 16.8212 3.17417 16.856 3.22199 16.9268C3.44169 17.2519 3.73226 17.3597 4.08213 17.3305C4.23719 17.3175 4.39415 17.3229 4.54977 17.3311C4.77486 17.343 5.01318 17.4275 5.22148 17.3698C5.64463 17.2525 6.06429 17.3314 6.48436 17.3079C6.99014 17.2797 7.49613 17.256 8.01512 17.2624C8.18812 17.6359 8.25052 18.0064 8.31273 18.3827C8.39229 18.8639 8.50904 19.3374 8.61452 19.8129C8.66225 20.0281 8.72606 20.2387 8.77429 20.4538C8.83583 20.7282 8.89031 21.0046 8.94524 21.2808C8.97869 21.449 8.99427 21.6231 9.04108 21.786C9.10991 22.0257 9.19619 22.2593 9.28129 22.4925C9.34441 22.6655 9.41746 22.834 9.48609 23.0044C9.50093 23.0465 9.51576 23.0886 9.52082 23.1868C9.54069 23.3246 9.57032 23.4063 9.59995 23.488C9.62614 23.5927 9.65232 23.6975 9.64544 23.8336C9.39481 23.8115 9.17043 23.6918 8.96115 23.7191C8.56416 23.7707 8.17854 23.7856 7.78467 23.702C7.49725 23.641 7.22471 23.6601 7.04704 24.0021C6.99785 24.0967 6.86553 24.1368 6.77136 24.2018C6.77136 24.2018 6.7759 24.1792 6.77305 24.16C6.74809 24.1166 6.72598 24.0924 6.70387 24.0683C6.70387 24.0683 6.70866 24.0748 6.71502 24.045C6.7609 23.6069 6.66781 23.4555 6.21747 23.1956C6.15831 23.0969 6.09916 22.9981 6.03373 22.8353C6.02296 22.5938 5.95077 22.4741 5.79497 22.4256C5.75904 22.3675 5.72311 22.3094 5.68108 22.1884C5.65874 21.95 5.59467 21.8133 5.43657 21.7528ZM8.93956 22.9809C8.9451 22.9812 8.95064 22.9815 8.93956 22.9809V22.9809Z" fill="white"/>
<path d="M22.5047 11.0601C22.534 11.0681 22.5367 11.0908 22.5339 11.1777C22.49 11.3085 22.463 11.3902 22.4114 11.439C22.1181 11.7164 21.8174 11.9837 21.5223 12.2587C21.2613 12.5019 21.0044 12.7507 20.7181 13.006C20.5374 13.1696 20.3841 13.3241 20.2066 13.4923C20.0853 13.5935 19.9882 13.681 19.8623 13.7779C19.6114 13.8952 19.4303 14.1544 19.1356 13.9474C18.5898 13.5643 17.9635 13.4811 17.3417 13.4038C17.076 13.3707 16.8079 13.3816 16.5553 13.6646C16.6585 13.7702 16.7395 13.8704 16.835 13.9479C17.5937 14.5635 18.3641 15.1614 19.1118 15.7933C19.469 16.0952 19.7298 16.4967 19.8089 17.0167C19.8226 17.1071 19.8479 17.2281 19.9056 17.2712C20.1297 17.4387 20.1557 17.6796 20.1501 17.9449C20.144 18.2374 20.2704 18.4306 20.5134 18.5257C20.7394 18.6141 20.8674 18.5475 20.9178 18.2772C20.9549 18.0785 20.9451 17.8686 20.9556 17.6636C20.9719 17.3429 20.9768 17.0351 21.2987 16.8584C21.8065 16.5797 22.2917 16.2488 22.7998 15.9706C23.0396 15.8393 23.2799 15.5794 23.5858 15.813C23.0804 16.139 22.5754 16.4656 22.0694 16.7902C21.9581 16.8616 21.848 16.9396 21.7292 16.9911C21.4221 17.1243 21.3264 17.3554 21.3215 17.7323C21.2944 19.8282 20.0152 21.5828 18.2035 22.0557C15.9231 22.651 13.6355 20.8576 13.3455 18.2455C13.3408 18.2029 13.359 18.1572 13.377 18.052C13.5324 18.141 13.6681 18.2134 13.7993 18.2948C14.672 18.8361 15.5426 19.3819 16.4163 19.9211C17.0671 20.3228 17.7205 20.3078 18.3773 19.9276C19.3159 19.3844 19.8209 18.0795 19.5161 16.9436C19.3731 16.4104 19.0291 16.0488 18.6416 15.7364C17.8546 15.1018 17.0633 14.4738 16.2753 13.8407C16.1542 13.7433 16.0413 13.633 15.8397 13.4528C16.198 13.3481 16.4493 13.2408 16.7085 13.2052C17.5142 13.0944 18.3074 13.1635 19.0379 13.5976C19.3093 13.7588 19.492 13.7138 19.7219 13.5061C20.6321 12.6837 21.558 11.8832 22.5047 11.0601Z" fill="white"/>
<path d="M23.6123 15.807C23.2794 15.5793 23.0391 15.8393 22.7993 15.9706C22.2912 16.2487 21.806 16.5797 21.2982 16.8583C20.9762 17.035 20.9714 17.3428 20.9551 17.6635C20.9446 17.8685 20.9544 18.0784 20.9173 18.2772C20.8669 18.5475 20.7389 18.6141 20.5129 18.5256C20.2699 18.4305 20.1435 18.2373 20.1496 17.9448C20.1552 17.6796 20.1291 17.4386 19.9051 17.2712C19.8474 17.2281 19.8221 17.107 19.8083 17.0167C19.7293 16.4966 19.4685 16.0951 19.1113 15.7933C18.3636 15.1614 17.5932 14.5635 16.8345 13.9478C16.739 13.8703 16.658 13.7701 16.5548 13.6645C16.8074 13.3815 17.0755 13.3706 17.3412 13.4037C17.963 13.4811 18.5893 13.5642 19.1351 13.9473C19.4298 14.1543 19.6109 13.8951 19.8539 13.8098C19.8346 13.9631 19.7943 14.0937 19.7581 14.2108C19.806 14.2574 19.8249 14.2908 19.8483 14.2954C19.903 14.3062 19.9645 14.3202 20.0151 14.3029C20.5437 14.1229 21.0699 13.9341 21.5986 13.7548C21.7194 13.7138 21.8473 13.6779 21.9722 13.6771C22.9549 13.6708 23.9378 13.6718 24.9206 13.6769C25.0095 13.6773 25.0982 13.7225 25.1816 13.7454C25.1656 13.9624 24.8827 14.0331 25.0551 14.3295C25.2593 14.2074 25.5087 14.1303 25.6615 13.9497C25.8786 13.6932 26.117 13.6546 26.3937 13.674C26.1523 13.8762 25.9195 14.0935 25.6669 14.2763C25.433 14.4457 25.1724 14.5681 24.9359 14.7334C24.8667 14.7817 24.8394 14.9059 24.7942 15.032C24.7955 15.0688 24.7909 15.0665 24.755 15.0541C24.531 15.0794 24.3334 15.0889 24.1572 15.1629C23.9975 15.23 23.811 15.3342 23.9175 15.6081C23.8248 15.6724 23.7321 15.7367 23.6123 15.807Z" fill="white"/>
<path d="M2.95742 16.7525C3.06571 16.9884 3.16842 17.2278 3.28372 17.4593C3.42059 17.734 3.568 18.0021 3.71143 18.2727C3.77596 18.3944 3.85375 18.5093 3.90414 18.638C3.96401 18.7908 4.00085 18.955 4.03983 19.153C3.56905 18.3658 3.1 17.5442 2.64453 16.7132C1.81469 15.1991 0.992537 13.6797 0.167995 12.162C-0.0656811 11.7319 -0.0662631 11.7289 0.233837 11.3916C3.51916 7.6986 6.80503 4.00622 10.0914 0.314408C10.1804 0.214378 10.2767 0.122477 10.3956 0C10.4787 0.193972 10.3964 0.333864 10.3597 0.473888C9.76248 2.7479 9.16296 5.02115 8.5665 7.2954C8.44328 7.76521 8.44563 7.77019 8.77906 8.06428C11.0541 10.071 13.323 12.0867 15.6098 14.0764C16.4995 14.8505 17.421 15.5799 18.3458 16.3008C18.9937 16.8058 19.1535 17.438 18.9273 18.2724C18.7215 19.0314 18.077 19.5697 17.3863 19.555C17.1678 19.5504 16.9311 19.4794 16.7373 19.3648C15.8547 18.8435 14.9841 18.2967 14.11 17.7574C12.6363 16.8482 11.1634 15.9374 9.68978 15.028C9.12787 14.6812 8.56585 14.3346 8.00207 13.9917C7.88056 13.9178 7.75128 13.86 7.55617 13.7588C7.57632 13.976 7.57497 14.1152 7.60349 14.2461C8.1528 16.7674 8.70621 19.2876 9.25707 21.8085C9.33864 22.1818 9.41156 22.5576 9.4876 22.9682C9.41809 22.8338 9.34504 22.6654 9.28192 22.4924C9.19682 22.2591 9.11054 22.0255 9.04171 21.7859C8.9949 21.6229 8.97931 21.4488 8.94587 21.2806C8.89094 21.0044 8.83646 20.728 8.77492 20.4536C8.72669 20.2386 8.66288 20.0279 8.61515 19.8128C8.50967 19.3373 8.39291 18.8637 8.31336 18.3825C8.25115 18.0062 8.18875 17.6357 8.01341 17.2275C7.97181 17.0243 7.94564 16.888 7.9197 16.7128C7.91324 16.432 7.94945 16.167 7.66359 16.0344C7.59043 15.1323 7.37783 14.3064 7.18742 13.4828C7.31237 13.4798 7.40333 13.4778 7.52517 13.4802C7.59737 13.4962 7.64324 13.4986 7.67935 13.5209C8.68538 14.1424 9.6865 14.7741 10.6977 15.3848C11.0704 15.6099 11.4664 15.786 11.8697 16.0103C12.1611 16.2104 12.4346 16.3847 12.7289 16.5596C12.7497 16.5602 12.7913 16.5609 12.8096 16.5862C13.2459 16.9079 13.6603 17.2111 14.0832 17.4987C14.495 17.7789 14.9089 18.0571 15.334 18.3104C15.8049 18.591 16.2873 18.8479 16.7692 19.1044C17.0499 19.2538 17.3293 19.4257 17.6628 19.2926C18.1972 19.0794 18.5814 18.6604 18.7205 18.0673C18.8856 17.3631 18.8664 16.8995 18.0822 16.4449C18.0502 16.4059 18.0304 16.3854 17.9956 16.3422C17.9016 16.2024 17.8256 16.075 17.6464 16.1605C17.5834 16.1241 17.5416 16.0996 17.4913 16.0437C17.2586 15.6375 16.9664 15.375 16.5421 15.2775C16.1971 14.9518 15.8679 14.6532 15.5398 14.3531C15.1901 14.0332 14.8425 13.7105 14.4919 13.3919C14.3496 13.2625 14.2045 13.1368 14.0564 13.016C13.7495 12.7658 13.4427 12.5153 13.1301 12.2745C12.9697 12.1509 12.7969 12.0477 12.6284 11.9359C12.6272 11.9365 12.6265 11.9353 12.6182 11.9058C12.5285 11.8019 12.4471 11.7275 12.3452 11.631C12.1657 11.475 12.0041 11.3449 11.8481 11.2068C10.8018 10.2802 9.762 9.34422 8.70881 8.4277C8.21851 8.00103 8.13675 7.82986 8.27853 7.20223C8.31091 7.097 8.32812 7.01748 8.36176 6.91311C8.39281 6.80836 8.40743 6.72848 8.43591 6.61514C8.91217 4.83604 9.37479 3.09046 9.83572 1.34432C9.84723 1.30074 9.84175 1.25087 9.84062 1.20404C9.84029 1.19038 9.82899 1.17579 9.82017 1.16404C9.81137 1.15231 9.79938 1.1436 9.76369 1.10981C9.71714 1.13413 9.64373 1.1494 9.6007 1.19841C8.87162 2.02884 8.14527 2.86233 7.421 3.69809C7.27254 3.8694 7.14082 4.05918 6.99126 4.22918C6.53341 4.74959 6.07064 5.26451 5.5842 5.78882C5.49363 5.85723 5.42864 5.91839 5.34596 6.00445C5.22296 6.17216 5.11765 6.31495 4.98635 6.4719C4.89995 6.52807 4.83004 6.5592 4.78053 6.61376C4.09144 7.37321 3.40227 8.13261 2.71898 8.89865C2.0166 9.68609 1.31233 10.4719 0.628448 11.2793C0.481415 11.453 0.418172 11.7164 0.322766 11.9708C0.613787 12.5155 0.896463 13.0293 1.18339 13.5399C1.65948 14.3873 2.1383 15.2327 2.62258 16.1115C2.70996 16.2834 2.79071 16.4227 2.87822 16.5878C2.90912 16.66 2.93327 16.7062 2.95742 16.7525Z" fill="white"/>
<path d="M6.77832 24.2337C6.86543 24.1367 6.99775 24.0967 7.04693 24.002C7.22461 23.66 7.49714 23.6409 7.78456 23.7019C8.17843 23.7856 8.56406 23.7706 8.96104 23.719C9.17032 23.6918 9.39471 23.8115 9.64807 23.8744C9.92654 24.9535 10.1746 26.0217 10.4107 27.0932C10.8251 28.9731 11.2325 30.8551 11.6414 32.7366C11.6713 32.8741 11.6897 33.0147 11.663 33.188C11.6005 33.0975 11.5296 33.0128 11.4767 32.9157C10.293 30.7463 9.10997 28.5764 7.92982 26.4045C7.54403 25.6945 7.16663 24.9787 6.77832 24.2337Z" fill="white"/>
<path d="M24.8512 24.8323C25.1715 24.6433 25.3902 24.3924 25.3384 23.9376C25.3232 23.8043 25.375 23.6613 25.4742 23.5C25.5877 23.8172 25.7011 24.1343 25.8322 24.5009C26.2424 24.589 26.6782 24.5924 27.0608 24.2399C27.2704 24.3971 27.1788 24.7816 27.4997 24.8369C26.9723 25.8863 26.4167 26.9309 25.853 27.9699C24.9625 29.6116 24.067 31.2499 23.1719 32.8885C23.1155 32.9916 23.0441 33.0843 22.9053 33.1462C23.496 30.4608 24.0866 27.7753 24.7128 25.044C24.7826 24.9429 24.8169 24.8876 24.8512 24.8323Z" fill="white"/>
<path d="M14.7119 29.3886C14.8244 29.5354 14.9366 29.7207 15.074 29.9618C15.1581 30.4388 15.202 30.8633 15.2785 31.2803C15.4377 32.148 15.6142 33.0118 15.7845 33.9125C15.7874 34.0184 15.7894 34.089 15.7925 34.191C15.8198 34.2992 15.846 34.3759 15.8734 34.492C16.1025 35.8475 16.325 37.165 16.5594 38.4797C16.7934 39.7927 16.9887 41.116 17.3334 42.4084C17.5293 41.611 17.689 40.8197 17.827 40.0237C18.093 38.4882 18.3468 36.95 18.623 35.3835C18.6843 35.1162 18.7284 34.8784 18.775 34.6041C18.8054 34.4015 18.8332 34.2354 18.8694 34.0325C19.0165 33.2184 19.1574 32.4415 19.2932 31.6635C19.3826 31.151 19.4647 30.637 19.5663 30.099C19.68 29.8798 19.7859 29.6877 19.7197 29.4059C19.7206 29.1683 19.7212 28.9726 19.7218 28.7769C19.8029 28.7754 19.884 28.7738 19.9955 28.771C19.8293 29.9341 19.6394 31.0999 19.4349 32.2624C18.788 35.9399 18.1358 39.6162 17.4847 43.2928C17.4502 43.4878 17.4074 43.6808 17.3684 43.8747C17.3343 43.8738 17.3002 43.8729 17.266 43.872C17.2272 43.6773 17.1846 43.4835 17.15 43.2878C16.3634 38.8413 15.5776 34.3946 14.7923 29.9477C14.7618 29.7749 14.7383 29.6006 14.7119 29.3886Z" fill="white"/>
<path d="M4.04004 19.2324C4.12877 19.2446 4.27378 19.2566 4.31611 19.337C4.69107 20.0492 5.0485 20.773 5.4081 21.4954C5.42726 21.5339 5.41937 21.5894 5.42287 21.6761C5.15958 21.2656 4.89246 20.8195 4.63699 20.3652C4.43352 20.0034 4.24427 19.6314 4.04004 19.2324Z" fill="white"/>
<path d="M20.8344 24.2187C20.5365 24.0172 20.2247 24.0838 19.8761 24.1415C20.1527 23.904 20.4969 23.754 20.9363 23.6187C20.8988 23.8626 20.8738 24.0251 20.8344 24.2187Z" fill="white"/>
<path d="M23.9479 15.6028C23.8111 15.3342 23.9976 15.2299 24.1573 15.1628C24.3334 15.0888 24.531 15.0794 24.755 15.0513C24.5199 15.2397 24.2491 15.4187 23.9479 15.6028Z" fill="white"/>
<path d="M14.282 26.98C14.4908 27.2603 14.6276 27.8822 14.5292 28.1781C14.433 27.8051 14.3574 27.4118 14.282 26.98Z" fill="white"/>
<path d="M6.22266 23.228C6.66786 23.4552 6.76096 23.6066 6.71212 24.0473C6.54447 23.8068 6.38613 23.5337 6.22266 23.228Z" fill="white"/>
<path d="M14.0488 25.6318C14.2436 25.9313 14.274 26.3094 14.2669 26.724C14.1845 26.3921 14.1146 26.0304 14.0488 25.6318Z" fill="white"/>
<path d="M13.7949 24.1895C13.872 24.5192 13.9464 24.8859 14.008 25.2821C13.9276 24.9498 13.86 24.5881 13.7949 24.1895Z" fill="white"/>
<path d="M20.0663 28.5492C19.9289 28.3093 19.9967 28.071 20.1735 27.8291C20.1578 28.0465 20.1194 28.2823 20.0663 28.5492Z" fill="white"/>
<path d="M19.1782 24.3779C19.0434 24.6157 18.8267 24.6615 18.5518 24.5678C18.7319 24.4939 18.9386 24.4357 19.1782 24.3779Z" fill="white"/>
<path d="M20.5804 25.6633C20.4534 25.4635 20.4882 25.2545 20.6594 25.0435C20.6506 25.2272 20.622 25.4298 20.5804 25.6633Z" fill="white"/>
<path d="M14.541 23.9986C14.3841 23.9486 14.2055 23.8734 14.0059 23.771C14.163 23.8203 14.3411 23.8968 14.541 23.9986Z" fill="white"/>
<path d="M20.3547 26.8837C20.3593 26.7137 20.3858 26.5152 20.4367 26.2944C20.433 26.4665 20.4048 26.6609 20.3547 26.8837Z" fill="white"/>
<path d="M13.9377 23.7033C13.9025 23.7582 13.8504 23.7958 13.7715 23.8505C13.6647 23.637 13.7399 23.5967 13.9377 23.7033Z" fill="white"/>
<path d="M5.44238 21.7852C5.59518 21.8131 5.65925 21.9497 5.67701 22.1618C5.6016 22.0716 5.52464 21.9447 5.44238 21.7852Z" fill="white"/>
<path d="M5.7998 22.4561C5.95089 22.474 6.02308 22.5938 6.02775 22.806C5.95344 22.7228 5.87898 22.6047 5.7998 22.4561Z" fill="white"/>
<path d="M16.6996 24.6324C16.6219 24.6484 16.5174 24.6502 16.3965 24.6329C16.4777 24.6152 16.5752 24.6167 16.6996 24.6324Z" fill="white"/>
<path d="M15.0145 24.2082C14.9229 24.1969 14.8127 24.1614 14.6877 24.0972C14.7807 24.1069 14.8882 24.1455 15.0145 24.2082Z" fill="white"/>
<path d="M15.6718 24.4478C15.5943 24.4457 15.4918 24.4255 15.374 24.3828C15.4548 24.3835 15.5508 24.4066 15.6718 24.4478Z" fill="white"/>
<path d="M9.60212 23.4574C9.57114 23.406 9.54151 23.3243 9.52344 23.2207C9.55782 23.2749 9.58065 23.3509 9.60212 23.4574Z" fill="white"/>
<path d="M14.6377 28.9092C14.7639 28.9204 14.8685 28.9778 14.7031 29.1512C14.6668 29.092 14.6521 29.0193 14.6377 28.9092Z" fill="white"/>
<path d="M20.7457 24.7049C20.7403 24.6439 20.7487 24.557 20.7758 24.457C20.7828 24.5223 20.7711 24.6006 20.7457 24.7049Z" fill="white"/>
<path d="M14.5586 28.5122C14.5919 28.5778 14.6221 28.6745 14.6465 28.8041C14.6123 28.7391 14.5839 28.6412 14.5586 28.5122Z" fill="white"/>
<path d="M16.103 24.5481C16.0487 24.5559 15.9702 24.5499 15.8789 24.5247C15.937 24.5151 16.0078 24.5247 16.103 24.5481Z" fill="white"/>
<path d="M24.8502 24.8319C24.816 24.8874 24.7817 24.9427 24.7272 25.0104C24.7145 24.9719 24.7221 24.9211 24.7667 24.85C24.819 24.8303 24.8343 24.8307 24.8496 24.8312C24.8496 24.8312 24.85 24.8317 24.8502 24.8319Z" fill="white"/>
<path d="M18.0799 24.6235C18.0505 24.6438 18.0042 24.6566 17.9414 24.6583C17.971 24.6368 18.017 24.6265 18.0799 24.6235Z" fill="white"/>
<path d="M20.2831 27.3307C20.2705 27.2904 20.2707 27.2259 20.2897 27.1514C20.3043 27.1964 20.3001 27.2515 20.2831 27.3307Z" fill="white"/>
<path d="M24.845 24.807C24.8344 24.8308 24.8191 24.8304 24.7808 24.8292C24.7603 24.7872 24.7626 24.7461 24.7757 24.6763C24.8044 24.6927 24.8224 24.7377 24.845 24.807Z" fill="white"/>
<path d="M24.2522 0.113536C24.2533 0.112723 24.2412 0.0751953 24.2412 0.0751953C24.2412 0.0751953 24.2419 0.106843 24.2459 0.112353C24.2499 0.117864 24.2511 0.114353 24.2522 0.113536Z" fill="white"/>
<path d="M15.0865 24.2454C15.1034 24.2575 15.0705 24.2692 15.0705 24.2692C15.0705 24.2692 15.0397 24.2528 15.0346 24.2405C15.0295 24.2281 15.0695 24.2333 15.0865 24.2454Z" fill="white"/>
<path d="M6.71082 24.095C6.72637 24.092 6.74849 24.1161 6.78353 24.162C6.7701 24.1632 6.74373 24.1427 6.71082 24.095Z" fill="white"/>
<path d="M20.232 27.5969C20.2122 27.5953 20.2116 27.5694 20.2302 27.5327C20.2383 27.5389 20.2389 27.5559 20.232 27.5969Z" fill="white"/>
<path d="M34.2552 11.6529C34.2146 11.7689 34.1741 11.8849 34.0803 12.0121C33.551 11.8302 33.073 11.4939 32.678 12.0084C32.3843 11.9093 32.1512 11.8175 31.9122 11.7535C31.6305 11.678 31.4443 11.922 31.2393 12.0649C30.8548 11.6425 30.3594 11.6134 29.8686 12.0678C29.6481 11.7656 29.407 11.9377 29.1833 12.0728C28.8522 11.6661 28.3374 11.5895 27.8135 12.0676C27.5933 11.757 27.352 11.9484 27.1287 12.0712C26.7291 11.601 26.212 11.6561 25.7595 12.0666C25.5495 11.8046 25.3221 11.8611 25.099 12.0975C24.8991 11.8714 24.6975 11.7414 24.415 11.7372C24.1142 11.7328 23.9148 11.9137 23.7015 12.0952C23.5613 11.9895 23.457 11.9094 23.2693 11.9673C22.9395 12.0689 22.761 11.811 22.8587 11.4377C22.8908 11.315 22.9308 11.195 22.9673 11.0737C22.9673 11.0737 22.9689 11.0753 22.9918 11.0638C23.0561 10.9953 23.0975 10.9382 23.1388 10.8811C23.7561 10.3231 24.3742 9.7661 24.9905 9.20675C25.3541 8.87675 25.702 8.52232 26.0817 8.21791C26.3567 7.99736 26.4427 7.74723 26.3424 7.39717C26.3251 7.33685 26.32 7.27212 26.3332 7.15572C26.5791 6.95394 26.7979 6.90327 27.0285 7.09144C27.1876 7.22131 27.3666 7.21253 27.556 7.16666C27.8029 7.10685 28.0579 7.0308 28.3056 7.04515C28.8012 7.07388 29.258 7.00206 29.655 6.64209C29.8005 6.76603 29.9582 6.87562 30.0895 7.01642C30.6351 7.60165 31.1759 8.1928 31.7126 8.78833C32.4101 9.56213 33.102 10.3422 33.8156 11.1806C33.8685 11.5164 34.0219 11.6364 34.2552 11.6529Z" fill="white"/>
<path d="M22.9371 11.0815C22.9308 11.1951 22.8907 11.3151 22.8586 11.4378C22.761 11.8111 22.9394 12.069 23.2693 11.9674C23.457 11.9095 23.5613 11.9896 23.7015 12.0953C23.9148 11.9138 24.1142 11.7329 24.415 11.7373C24.6975 11.7415 24.8991 11.8715 25.099 12.0976C25.3221 11.8612 25.5495 11.8047 25.7595 12.0667C26.212 11.6562 26.729 11.6011 27.1286 12.0713C27.3519 11.9485 27.5932 11.7571 27.8134 12.0678C28.3374 11.5896 28.8521 11.6662 29.1832 12.0729C29.407 11.9378 29.6481 11.7657 29.8686 12.0679C30.3594 11.6135 30.8548 11.6426 31.2393 12.065C31.4442 11.9221 31.6305 11.6781 31.9122 11.7536C32.1512 11.8176 32.3842 11.9094 32.678 12.0085C33.0729 11.494 33.551 11.8303 34.0584 12.0327C34.1025 12.3675 33.9239 12.6019 33.7396 12.8925C33.6544 13.0176 33.6133 13.1049 33.5723 13.1922C33.5018 13.3397 33.4313 13.4872 33.3057 13.6565C33.0875 13.6893 32.9907 13.7802 32.9816 13.9692C32.9757 14.0943 32.9761 14.2199 32.9737 14.3452C32.9737 14.3452 32.9736 14.3462 32.9409 14.3475C32.7266 14.3937 32.545 14.4386 32.3389 14.4895C32.343 14.1527 32.7461 14.0742 32.6007 13.6999C32.4592 13.6913 32.3063 13.6743 32.1534 13.674C30.9028 13.6719 29.6522 13.6721 28.4015 13.6732C27.931 13.6736 27.931 13.6756 27.6365 14.065C27.5874 13.9585 27.5429 13.8619 27.4983 13.7654C27.4983 13.6336 27.4982 13.5018 27.5085 13.3081C27.4826 13.1855 27.4462 13.1248 27.4098 13.0641C27.3547 13.1382 27.2996 13.2123 27.2445 13.2864C26.9794 13.4065 26.7142 13.5265 26.4212 13.6605C26.1167 13.655 25.8783 13.6936 25.6612 13.9502C25.5084 14.1307 25.259 14.2079 25.0548 14.3299C24.8825 14.0336 25.1653 13.9628 25.1814 13.7458C25.0979 13.7229 25.0092 13.6778 24.9203 13.6773C23.9375 13.6722 22.9547 13.6713 21.9719 13.6776C21.8471 13.6784 21.7191 13.7143 21.5983 13.7553C21.0696 13.9346 20.5434 14.1234 20.0149 14.3034C19.9642 14.3206 19.9027 14.3066 19.848 14.2959C19.8247 14.2913 19.8058 14.2579 19.7578 14.2113C19.794 14.0941 19.8344 13.9635 19.8826 13.8009C19.9875 13.6813 20.0845 13.5938 20.2381 13.4918C20.5828 13.4812 20.6945 13.2757 20.7449 12.9973C21.0036 12.751 21.2606 12.5023 21.5215 12.259C21.8166 11.9841 22.1174 11.7167 22.4106 11.4394C22.4622 11.3906 22.4892 11.3088 22.537 11.2121C22.6667 11.151 22.7869 11.1201 22.9371 11.0815ZM22.3775 12.1018C22.3403 12.0627 22.299 11.9877 22.2668 11.9924C22.2108 12.0004 22.1604 12.0577 22.1077 12.0943C22.1575 12.1331 22.2035 12.184 22.2586 12.2055C22.2852 12.2159 22.3289 12.1711 22.3775 12.1018Z" fill="white"/>
<path d="M27.4725 13.7836C27.5432 13.8619 27.5877 13.9584 27.6368 14.065C27.9314 13.6755 27.9314 13.6736 28.4019 13.6732C29.6525 13.6721 30.9032 13.6719 32.1538 13.674C32.3067 13.6743 32.4596 13.6913 32.601 13.6998C32.7464 14.0742 32.3434 14.1526 32.3393 14.4895C32.5453 14.4386 32.727 14.3937 32.9408 14.3475C32.6117 15.0142 32.2744 15.7008 31.8814 16.3443C31.5629 16.8658 31.1739 17.3322 30.8246 17.8306C30.7393 17.9523 30.686 18.1027 30.6201 18.2412C30.5362 18.4174 30.4421 18.5547 30.2315 18.5485C29.2659 18.5203 28.3 18.504 27.3343 18.4834C27.2205 18.481 27.1058 18.4894 26.9932 18.4751C26.6986 18.4378 26.5558 18.2154 26.7105 17.9514C26.9306 17.5756 26.9075 17.2063 26.8416 16.8032C26.8143 16.6362 26.8297 16.4493 26.8656 16.2823C26.9653 15.8176 27.0945 15.361 27.1951 14.8965C27.2555 14.618 27.278 14.3293 27.3307 14.0483C27.3471 13.9609 27.4065 13.8836 27.4725 13.7836Z" fill="white"/>
<path d="M29.6441 6.61187C29.2584 7.00222 28.8016 7.07405 28.3059 7.04532C28.0583 7.03096 27.8033 7.10702 27.5563 7.16682C27.3669 7.2127 27.188 7.22148 27.0288 7.0916C26.7983 6.90344 26.5794 6.95411 26.3299 7.11765C26.276 7.02651 26.2498 6.9199 26.2306 6.75987C26.2045 6.65517 26.1714 6.6039 26.1383 6.55264C25.5916 4.76219 24.7546 1.48033 24.7738 1.09668C24.9746 1.28513 25.1536 1.42795 25.3063 1.60022C26.6643 3.13211 28.0185 4.66838 29.3709 6.20652C29.4696 6.31883 29.5461 6.45591 29.6441 6.61187Z" fill="white"/>
<path d="M32.997 14.3257C32.9765 14.2197 32.976 14.0942 32.982 13.969C32.991 13.7801 33.0879 13.6892 33.284 13.6758C33.2181 13.8843 33.119 14.0953 32.997 14.3257Z" fill="white"/>
<path d="M34.241 11.6265C34.0225 11.6363 33.8692 11.5163 33.832 11.207C33.9611 11.3151 34.0937 11.4577 34.241 11.6265Z" fill="white"/>
<path d="M27.2765 13.2868C27.2999 13.2121 27.355 13.1381 27.4101 13.064C27.4464 13.1246 27.4828 13.1853 27.5088 13.2683C27.435 13.2896 27.3716 13.2885 27.2765 13.2868Z" fill="white"/>
<path d="M33.5938 13.174C33.6137 13.1048 33.6547 13.0175 33.7206 12.917C33.7019 12.9878 33.6584 13.0719 33.5938 13.174Z" fill="white"/>
<path d="M26.1436 6.5791C26.1713 6.60382 26.2044 6.65508 26.2293 6.72579C26.197 6.69871 26.173 6.65218 26.1436 6.5791Z" fill="white"/>
<path d="M23.1156 10.8921C23.0975 10.938 23.0561 10.9951 22.9912 11.0628C23.0092 11.0167 23.0508 10.96 23.1156 10.8921Z" fill="white"/>
<path d="M19.5492 30.1237C19.4638 30.637 19.3818 31.1511 19.2923 31.6635C19.1566 32.4415 19.0157 33.2184 18.8391 34.018C18.6282 33.9851 18.4576 33.8989 18.2817 33.882C18.0019 33.8551 17.7184 33.8808 17.4368 33.8727C16.9366 33.8582 16.4215 33.9741 15.9578 33.6324C15.8873 33.7309 15.835 33.8041 15.7827 33.8773C15.6133 33.0118 15.4369 32.1481 15.2777 31.2803C15.2012 30.8633 15.1572 30.4388 15.0983 29.9765C15.0827 29.729 15.0621 29.523 15.0536 29.3163C15.0461 29.1331 15.052 28.9492 15.052 28.77C16.2587 28.4407 17.44 28.6206 18.6118 28.5929C18.9598 28.5847 19.31 28.6932 19.6901 28.7626C19.7204 28.9726 19.7197 29.1683 19.6936 29.4213C19.5164 29.6676 19.4413 29.8743 19.5492 30.1237Z" fill="white"/>
<path d="M2.98564 16.7608C2.93293 16.706 2.90878 16.6598 2.87759 16.5519C2.87093 16.2861 2.81198 16.1286 2.61563 16.0787C2.13796 15.2325 1.65914 14.3871 1.18305 13.5397C0.896124 13.029 0.613448 12.5153 0.352661 11.9791C0.553225 12.0507 0.741338 12.1268 0.903697 12.2469C1.08268 12.3794 1.25889 12.4097 1.46869 12.3898C1.73433 12.3646 2.00375 12.3877 2.27149 12.3929C2.5132 12.3976 2.76592 12.4604 2.99406 12.4012C3.37874 12.3015 3.74231 12.2988 4.12572 12.4024C4.29345 12.4477 4.48804 12.3594 4.67121 12.3424C4.82386 12.3282 4.97764 12.3247 5.13091 12.3249C5.31279 12.3251 5.49871 12.3644 5.67581 12.3343C6.35609 12.2184 7.02995 12.1593 7.71135 12.3484C7.85421 12.388 8.08198 12.341 8.17932 12.2313C8.47323 11.9002 8.78955 11.9183 9.12266 12.0705C9.42197 12.2073 9.72696 12.2276 10.0427 12.2331C10.6518 12.2438 11.2607 12.1786 11.8667 12.3791C12.1815 12.4833 12.4844 12.3219 12.6293 11.9351C12.7965 12.0475 12.9694 12.1507 13.1298 12.2743C13.4424 12.5151 13.7492 12.7656 14.056 13.0158C14.2041 13.1366 14.3493 13.2623 14.4916 13.3917C14.8421 13.7103 15.1898 14.033 15.5395 14.3529C15.8676 14.653 16.1968 14.9516 16.5481 15.3112C16.697 15.9122 17.1072 15.9786 17.4993 16.075C17.5412 16.0994 17.5831 16.1239 17.6637 16.1854C17.8047 16.2705 17.9068 16.3184 18.009 16.3663C18.0301 16.3852 18.0499 16.4057 18.0814 16.4832C18.0371 17.0604 17.8927 17.2211 17.4077 17.2269C16.4736 17.238 15.5392 17.2386 14.6051 17.2263C14.2 17.2209 13.8209 17.0514 13.4995 16.7946C13.2725 16.6132 13.0526 16.5417 12.791 16.5607C12.791 16.5607 12.7493 16.56 12.7254 16.5239C12.5608 16.0416 12.3037 15.8894 11.8515 15.9843C11.4661 15.7858 11.07 15.6097 10.6973 15.3846C9.68616 14.7739 8.68504 14.1422 7.67901 13.5207C7.6429 13.4984 7.59703 13.496 7.5122 13.4539C7.33423 13.2484 7.23343 13.2977 7.15308 13.4835C7.37749 14.3062 7.59009 15.1321 7.663 16.0723C7.66888 16.3941 7.67084 16.639 7.91914 16.7515C7.9453 16.8878 7.97147 17.0241 7.99998 17.1952C7.49642 17.2556 6.99043 17.2793 6.48464 17.3076C6.06458 17.331 5.64492 17.2521 5.22177 17.3694C5.01346 17.4271 4.77515 17.3426 4.55006 17.3307C4.39444 17.3225 4.23748 17.3172 4.08242 17.3301C3.73255 17.3593 3.44198 17.2515 3.22228 16.9264C3.17446 16.8557 3.08466 16.8208 2.98564 16.7608Z" fill="white"/>
<path d="M8.94878 22.981C8.94438 22.9808 8.95319 22.9812 8.94878 22.981V22.981Z" fill="white"/>
<path d="M20.7177 13.0059C20.6949 13.2752 20.5831 13.4808 20.2627 13.4776C20.3837 13.324 20.5369 13.1694 20.7177 13.0059Z" fill="white"/>
<path d="M12.6286 11.9359C12.4849 12.322 12.182 12.4834 11.8672 12.3792C11.2612 12.1787 10.6523 12.2439 10.0432 12.2333C9.72741 12.2278 9.42242 12.2075 9.12311 12.0707C8.79 11.9184 8.47368 11.9004 8.17977 12.2315C8.08243 12.3412 7.85466 12.3882 7.7118 12.3485C7.0304 12.1594 6.35654 12.2186 5.67627 12.3344C5.49916 12.3646 5.31324 12.3253 5.13136 12.325C4.97809 12.3249 4.82431 12.3283 4.67166 12.3425C4.48849 12.3596 4.2939 12.4478 4.12617 12.4025C3.74276 12.299 3.37919 12.3017 2.99451 12.4014C2.76637 12.4605 2.51365 12.3978 2.27194 12.3931C2.0042 12.3878 1.73478 12.3647 1.46914 12.3899C1.25934 12.4099 1.08314 12.3795 0.904148 12.2471C0.741789 12.1269 0.553676 12.0509 0.34668 11.9469C0.418284 11.7163 0.481526 11.4529 0.62856 11.2793C1.31244 10.4718 2.01671 9.68604 2.71909 8.89861C3.40238 8.13257 4.09156 7.37316 4.78065 6.61372C4.83015 6.55915 4.90006 6.52803 4.98835 6.50879C5.02267 6.73118 5.10734 6.88572 5.2834 6.90385C5.70216 6.94698 6.12404 6.99447 6.5431 6.98059C7.07434 6.96299 7.61163 6.80537 8.09886 7.1907C8.14077 7.22384 8.20799 7.21645 8.26345 7.22789C8.13686 7.82981 8.21862 8.00098 8.70892 8.42766C9.76211 9.34418 10.8019 10.2802 11.8482 11.2067C12.0042 11.3449 12.1658 11.4749 12.3501 11.6633C12.4592 11.7904 12.5429 11.8628 12.6266 11.9353C12.6266 11.9353 12.6273 11.9365 12.6286 11.9359Z" fill="white"/>
<path d="M8.27797 7.20228C8.20733 7.21655 8.1401 7.22394 8.0982 7.1908C7.61097 6.80547 7.07367 6.96309 6.54243 6.98069C6.12337 6.99457 5.7015 6.94708 5.28274 6.90395C5.10667 6.88582 5.02201 6.73128 5.01367 6.49474C5.1171 6.31501 5.22241 6.17221 5.37195 5.99941C5.48053 5.90681 5.54488 5.84422 5.60923 5.78163C6.07009 5.26457 6.53286 4.74964 6.99071 4.22923C7.14027 4.05924 7.27199 3.86945 7.42045 3.69814C8.14472 2.86238 8.87106 2.02889 9.60015 1.19847C9.64318 1.14945 9.71658 1.13419 9.76314 1.10986C9.79883 1.14366 9.81081 1.15236 9.81961 1.16409C9.82843 1.17584 9.83974 1.19044 9.84007 1.20409C9.84119 1.25092 9.84668 1.30079 9.83517 1.34438C9.37424 3.09052 8.91162 4.83609 8.41465 6.62698C8.36831 6.76082 8.35654 6.84942 8.34477 6.93802C8.32757 7.01754 8.31036 7.09705 8.27797 7.20228Z" fill="white"/>
<path d="M12.8096 16.5862C13.0529 16.542 13.2728 16.6134 13.4998 16.7949C13.8212 17.0517 14.2004 17.2212 14.6055 17.2265C15.5396 17.2389 16.4739 17.2382 17.4081 17.2271C17.893 17.2213 18.0374 17.0606 18.0951 16.5005C18.8664 16.8996 18.8856 17.3631 18.7205 18.0673C18.5814 18.6604 18.1972 19.0794 17.6628 19.2927C17.3293 19.4258 17.0499 19.2538 16.7692 19.1045C16.2873 18.848 15.8049 18.5911 15.334 18.3105C14.9089 18.0572 14.495 17.7789 14.0832 17.4988C13.6603 17.2112 13.2459 16.9079 12.8096 16.5862Z" fill="white"/>
<path d="M17.491 16.0437C17.1073 15.9788 16.6971 15.9124 16.5645 15.3379C16.9662 15.375 17.2584 15.6375 17.491 16.0437Z" fill="white"/>
<path d="M11.8691 16.0102C12.3035 15.8894 12.5605 16.0416 12.7044 16.5233C12.434 16.3846 12.1605 16.2103 11.8691 16.0102Z" fill="white"/>
<path d="M7.91904 16.7128C7.67052 16.6392 7.66855 16.3943 7.66406 16.1128C7.94878 16.167 7.91257 16.432 7.91904 16.7128Z" fill="white"/>
<path d="M2.62207 16.1118C2.8118 16.129 2.87075 16.2866 2.87067 16.5264C2.7902 16.4229 2.70944 16.2837 2.62207 16.1118Z" fill="white"/>
<path d="M7.18726 13.4827C7.2336 13.2979 7.3344 13.2485 7.48149 13.4497C7.40316 13.4777 7.31221 13.4798 7.18726 13.4827Z" fill="white"/>
<path d="M12.6179 11.9057C12.5425 11.8628 12.4588 11.7904 12.3702 11.6855C12.4468 11.7275 12.5283 11.8018 12.6179 11.9057Z" fill="white"/>
<path d="M17.995 16.3424C17.9066 16.3188 17.8044 16.2709 17.6846 16.1979C17.825 16.0752 17.901 16.2026 17.995 16.3424Z" fill="white"/>
<path d="M8.36158 6.91289C8.35691 6.84914 8.36868 6.76054 8.40116 6.66016C8.40725 6.72826 8.39263 6.80815 8.36158 6.91289Z" fill="white"/>
<path d="M5.58365 5.78906C5.54489 5.84441 5.48054 5.907 5.38965 5.97469C5.42809 5.91863 5.49308 5.85747 5.58365 5.78906Z" fill="white"/>
<path d="M15.7841 33.9125C15.8354 33.8041 15.8877 33.7309 15.9582 33.6323C16.4219 33.974 16.937 33.8582 17.4372 33.8726C17.7188 33.8808 18.0023 33.8551 18.2821 33.882C18.458 33.8989 18.6287 33.985 18.8311 34.0547C18.8328 34.2353 18.805 34.4015 18.7499 34.6213C18.5658 34.8973 18.522 35.1424 18.6053 35.4129C18.3464 36.95 18.0926 38.4882 17.8266 40.0237C17.6886 40.8197 17.5289 41.611 17.333 42.4084C16.9883 41.116 16.793 39.7927 16.559 38.4797C16.3246 37.1649 16.102 35.8475 15.8933 34.4811C16.0738 34.2261 15.8883 34.2178 15.7909 34.1596C15.7889 34.089 15.787 34.0183 15.7841 33.9125Z" fill="white"/>
<path d="M19.5662 30.0991C19.4421 29.8743 19.5172 29.6676 19.6942 29.4634C19.7859 29.6878 19.6799 29.8799 19.5662 30.0991Z" fill="white"/>
<path d="M18.6221 35.3839C18.5216 35.1428 18.5654 34.8977 18.7469 34.6582C18.7275 34.8788 18.6835 35.1166 18.6221 35.3839Z" fill="white"/>
<path d="M15.7922 34.1914C15.8885 34.2182 16.0739 34.2266 15.8922 34.4423C15.8457 34.3763 15.8196 34.2996 15.7922 34.1914Z" fill="white"/>
<path d="M22.3719 12.1266C22.3296 12.1711 22.2859 12.2159 22.2592 12.2055C22.2041 12.184 22.1581 12.1331 22.1084 12.0943C22.1611 12.0577 22.2115 12.0004 22.2675 11.9924C22.2997 11.9878 22.341 12.0627 22.3719 12.1266Z" fill="white"/>
</svg>
